#!OML:ASF X:\für Bonn\!DataBase\2005_08_11_Bastian_Final\c3d\Bastian.ASF
:FULLY-SPECIFIED
:DEGREES
153
root 19.6719 15.7924 -3.08134 1089.7 -63.5618 21.7845
lowerback 78.5095 -3.40151 11.1193
upperback 10.5687 3.06248 0.938137
thorax -7.92969 0.7154 -4.27702
lowerneck 1.64112 -4.68964 8.90012
upperneck -25.3011 -7.4056 -4.61635
head -8.63937 -4.31643 -2.41434
rclavicle -1.43125e-013 -5.08889e-014
rhumerus 43.107 -12.2035 -46.3271
rradius 22.5643
rwrist 6.86511
rhand -47.9288 -0.209868
rfingers 7.12502
rthumb -20.6 -29.1368
lclavicle -1.43125e-013 -5.08889e-014
lhumerus -15.5468 -31.6867 -271.79
lradius 48.6116
lwrist -329.104
lhand -14.9155 -16.8981
lfingers 7.12502
lthumb 11.2462 12.7805
rfemur -77.3865 -19.4926 22.9365
rtibia 70.1491
rfoot -16.3477 -2.31462
rtoes 4.66664
lfemur -71.3606 -6.87548 -30.3434
ltibia 50.7559
lfoot 0.444185 -12.7307
ltoes -15.534
154
root 19.6451 15.7948 -3.07513 1089.85 -63.3662 21.7105
lowerback 78.4695 -3.14836 10.944
upperback 10.6411 3.19798 1.05733
thorax -7.86885 0.763982 -4.13255
lowerneck 1.51938 -4.70602 9.09941
upperneck -25.2791 -7.44698 -4.71797
head -8.6253 -4.34907 -2.48153
rclavicle -3.18055e-015 3.81667e-014
rhumerus 42.8548 -11.1568 -44.9136
rradius 23.2544
rwrist 6.87937
rhand -47.8581 0.428281
rfingers 7.12502
rthumb -20.532 -28.506
lclavicle -3.18055e-015 3.81667e-014
lhumerus -15.2931 -31.8537 -271.597
lradius 48.3959
lwrist -329.175
lhand -14.81 -16.9329
lfingers 7.12502
lthumb 11.348 12.7401
rfemur -77.3622 -19.6609 22.9939
rtibia 70.1975
rfoot -16.5068 -2.33977
rtoes 4.67387
lfemur -71.3521 -6.86946 -30.4527
ltibia 50.8165
lfoot 0.386464 -12.9923
ltoes -15.4499
155
root 19.6182 15.7963 -3.06908 1090.06 -63.1316 21.6066
lowerback 78.4044 -2.91155 10.7708
upperback 10.6897 3.32785 1.20238
thorax -7.8412 0.805188 -3.95681
lowerneck 1.48063 -4.72845 9.20289
upperneck -25.2857 -7.48806 -4.77121
head -8.63039 -4.37534 -2.51398
rclavicle 9.85972e-014 0
rhumerus 42.6238 -9.91344 -43.2832
rradius 23.9954
rwrist 6.57288
rhand -47.6465 1.00073
rfingers 7.12502
rthumb -20.3287 -27.9553
lclavicle 9.85972e-014 0
lhumerus -15.1426 -32.0443 -271.361
lradius 48.2462
lwrist -329.203
lhand -14.7439 -16.9333
lfingers 7.12502
lthumb 11.4118 12.7362
rfemur -77.3645 -19.839 23.0582
rtibia 70.2538
rfoot -16.6674 -2.3649
rtoes 4.75577
lfemur -71.3604 -6.89411 -30.5444
ltibia 50.8687
lfoot 0.343004 -13.2385
ltoes -15.3122
156
root 19.5921 15.7981 -3.06409 1090.26 -62.9124 21.4818
lowerback 78.3207 -2.66687 10.5942
upperback 10.7816 3.45008 1.3385
thorax -7.76542 0.847283 -3.78764
lowerneck 1.35137 -4.74646 9.25991
upperneck -25.2764 -7.51729 -4.74561
head -8.60798 -4.40133 -2.51544
rclavicle 5.08889e-014 -1.59028e-015
rhumerus 42.7209 -8.91518 -42.0297
rradius 24.4687
rwrist 6.61739
rhand -47.4172 1.42745
rfingers 7.12502
rthumb -20.1083 -27.5519
lclavicle 5.08889e-014 -1.59028e-015
lhumerus -14.9068 -32.1797 -271.182
lradius 48.0765
lwrist -329.226
lhand -14.5867 -16.9347
lfingers 7.12502
lthumb 11.5634 12.7263
rfemur -77.3668 -20.0077 23.1435
rtibia 70.3164
rfoot -16.8059 -2.40352
rtoes 4.77279
lfemur -71.364 -6.92894 -30.5818
ltibia 50.9184
lfoot 0.314328 -13.4434
ltoes -15.0732
157
root 19.5656 15.7993 -3.05934 1090.41 -62.6797 21.4211
lowerback 78.251 -2.47299 10.4342
upperback 10.8537 3.53332 1.43008
thorax -7.70895 0.878197 -3.66027
lowerneck 1.22066 -4.76806 9.38641
upperneck -25.2514 -7.55605 -4.76708
head -8.58544 -4.43355 -2.54372
rclavicle -2.8625e-014 3.33958e-014
rhumerus 42.9659 -7.97894 -40.9348
rradius 24.8231
rwrist 6.65112
rhand -47.0711 1.62099
rfingers 7.12502
rthumb -19.7756 -27.393
lclavicle -2.8625e-014 3.33958e-014
lhumerus -14.7166 -32.3089 -271.026
lradius 47.9245
lwrist -329.318
lhand -14.4911 -16.9095
lfingers 7.12502
lthumb 11.6555 12.7463
rfemur -77.3555 -20.1778 23.1802
rtibia 70.3824
rfoot -16.9703 -2.46025
rtoes 4.92336
lfemur -71.3534 -6.94684 -30.6924
ltibia 50.9656
lfoot 0.271226 -13.6969
ltoes -14.9598
158
root 19.5395 15.7998 -3.05521 1090.63 -62.4461 21.2913
lowerback 78.1409 -2.31482 10.3311
upperback 10.9543 3.60855 1.49605
thorax -7.61577 0.911967 -3.58158
lowerneck 1.0632 -4.79561 9.43524
upperneck -25.2412 -7.59223 -4.69635
head -8.55656 -4.46692 -2.52863
rclavicle -1.11319e-013 -1.59028e-015
rhumerus 43.2055 -6.89278 -39.5873
rradius 25.2718
rwrist 6.18658
rhand -46.7663 1.51481
rfingers 7.12502
rthumb -19.4826 -27.5291
lclavicle -1.11319e-013 -1.59028e-015
lhumerus -14.4804 -32.5104 -270.932
lradius 47.7924
lwrist -329.335
lhand -14.3694 -16.925
lfingers 7.12502
lthumb 11.7729 12.7241
rfemur -77.3586 -20.353 23.2773
rtibia 70.449
rfoot -17.1374 -2.50753
rtoes 4.94816
lfemur -71.364 -6.9776 -30.7437
ltibia 51.015
lfoot 0.237046 -13.9474
ltoes -14.7232
159
root 19.5144 15.7995 -3.05095 1090.79 -62.2059 21.2386
lowerback 77.9885 -2.1761 10.2297
upperback 11.0577 3.66052 1.54212
thorax -7.52397 0.939834 -3.51896
lowerneck 0.910679 -4.82431 9.50665
upperneck -25.2141 -7.62854 -4.63529
head -8.52416 -4.50063 -2.52059
rclavicle 1.59028e-014 -1.11319e-014
rhumerus 43.5365 -5.89178 -38.3854
rradius 25.6833
rwrist 5.70315
rhand -46.3715 1.29056
rfingers 7.12502
rthumb -19.103 -27.7913
lclavicle 1.59028e-014 -1.11319e-014
lhumerus -14.235 -32.6989 -270.862
lradius 47.6393
lwrist -329.389
lhand -14.2526 -16.8718
lfingers 7.12502
lthumb 11.8855 12.7708
rfemur -77.4016 -20.5431 23.3412
rtibia 70.5206
rfoot -17.3064 -2.5494
rtoes 4.99589
lfemur -71.3945 -7.00719 -30.855
ltibia 51.0684
lfoot 0.177533 -14.2091
ltoes -14.7725
160
root 19.4891 15.7999 -3.04694 1090.97 -61.9705 21.1519
lowerback 77.8441 -2.05523 10.1543
upperback 11.1927 3.70412 1.57081
thorax -7.38993 0.968834 -3.48184
lowerneck 0.734273 -4.8497 9.54059
upperneck -25.253 -7.65224 -4.49891
head -8.50522 -4.53453 -2.48224
rclavicle 9.85972e-014 -1.90833e-014
rhumerus 43.9001 -4.82102 -36.9992
rradius 26.1709
rwrist 4.93338
rhand -45.9869 0.679238
rfingers 7.12502
rthumb -18.7331 -28.4387
lclavicle 9.85972e-014 -1.90833e-014
lhumerus -13.95 -32.9267 -270.859
lradius 47.5403
lwrist -329.39
lhand -14.1433 -16.8488
lfingers 7.12502
lthumb 11.9909 12.7877
rfemur -77.4122 -20.7257 23.4163
rtibia 70.5858
rfoot -17.4606 -2.59062
rtoes 5.036
lfemur -71.402 -7.05879 -30.9119
ltibia 51.1197
lfoot 0.134832 -14.4184
ltoes -14.6748
161
root 19.4651 15.7994 -3.04375 1091.13 -61.7271 21.0918
lowerback 77.6677 -1.94628 10.0979
upperback 11.335 3.74698 1.5988
thorax -7.24879 0.999046 -3.45327
lowerneck 0.513739 -4.89129 9.57139
upperneck -25.2394 -7.70726 -4.38113
head -8.46318 -4.58149 -2.44851
rclavicle 6.99722e-014 -1.08139e-013
rhumerus 44.3426 -3.86396 -35.7232
rradius 26.5977
rwrist 4.15314
rhand -45.5527 -0.0198078
rfingers 7.12502
rthumb -18.3154 -29.1775
lclavicle 6.99722e-014 -1.08139e-013
lhumerus -13.6649 -33.1763 -270.852
lradius 47.4648
lwrist -329.344
lhand -13.9953 -16.7827
lfingers 7.12502
lthumb 12.1336 12.8454
rfemur -77.4487 -20.9149 23.498
rtibia 70.6543
rfoot -17.603 -2.63436
rtoes 4.96522
lfemur -71.4279 -7.1225 -30.9751
ltibia 51.1721
lfoot 0.096881 -14.6251
ltoes -14.6655
162
root 19.4398 15.7999 -3.04115 1091.31 -61.4995 21.0095
lowerback 77.4693 -1.78403 10.0074
upperback 11.5038 3.82006 1.68105
thorax -7.08539 1.0356 -3.36165
lowerneck 0.283449 -4.93081 9.48976
upperneck -25.2843 -7.7676 -4.23154
head -8.43342 -4.62636 -2.38508
rclavicle -4.13472e-014 4.77083e-014
rhumerus 44.8778 -2.83588 -34.2311
rradius 27.0669
rwrist 3.06504
rhand -45.0551 -0.798635
rfingers 7.12502
rthumb -17.8367 -30.0006
lclavicle -4.13472e-014 4.77083e-014
lhumerus -13.3533 -33.3703 -270.808
lradius 47.3822
lwrist -329.354
lhand -13.897 -16.7269
lfingers 7.12502
lthumb 12.2284 12.8956
rfemur -77.4757 -21.0728 23.5753
rtibia 70.7154
rfoot -17.7527 -2.6906
rtoes 5.007
lfemur -71.4522 -7.15514 -31.0364
ltibia 51.2137
lfoot 0.0560553 -14.8693
ltoes -14.5044
163
root 19.4151 15.7998 -3.03814 1091.41 -61.2602 20.994
lowerback 77.2798 -1.65839 9.9266
upperback 11.6894 3.8593 1.74508
thorax -6.90018 1.06208 -3.28005
lowerneck 0.0100626 -4.96199 9.36213
upperneck -25.2975 -7.81013 -4.03487
head -8.37973 -4.6624 -2.30154
rclavicle 1.27222e-014 -2.06736e-014
rhumerus 45.5002 -1.84251 -32.7089
rradius 27.5054
rwrist 1.81703
rhand -44.51 -1.43006
rfingers 7.12502
rthumb -17.3121 -30.679
lclavicle 1.27222e-014 -2.06736e-014
lhumerus -12.9888 -33.5689 -270.818
lradius 47.2835
lwrist -329.316
lhand -13.7709 -16.706
lfingers 7.12502
lthumb 12.35 12.9092
rfemur -77.4657 -21.2651 23.6126
rtibia 70.7795
rfoot -17.9091 -2.72995
rtoes 5.13851
lfemur -71.4381 -7.23125 -31.0954
ltibia 51.2567
lfoot 0.0604713 -15.0477
ltoes -14.1378
164
root 19.3904 15.7998 -3.03563 1091.53 -61.0114 20.9793
lowerback 77.1057 -1.53382 9.85067
upperback 11.8339 3.91405 1.82253
thorax -6.76141 1.09048 -3.19079
lowerneck -0.230928 -5.0118 9.21123
upperneck -25.322 -7.88848 -3.87683
head -8.33849 -4.70992 -2.22337
rclavicle -4.77083e-014 4.6118e-014
rhumerus 46.1798 -0.911015 -31.2856
rradius 27.9268
rwrist 0.482663
rhand -43.8899 -1.86968
rfingers 7.12502
rthumb -16.7152 -31.1701
lclavicle -4.77083e-014 4.6118e-014
lhumerus -12.7302 -33.8055 -270.797
lradius 47.2879
lwrist -329.258
lhand -13.7125 -16.6733
lfingers 7.12502
lthumb 12.4063 12.9385
rfemur -77.4931 -21.4538 23.6586
rtibia 70.8443
rfoot -18.0379 -2.7818
rtoes 5.15404
lfemur -71.4463 -7.28311 -31.1949
ltibia 51.2916
lfoot 0.0178503 -15.2829
ltoes -14.1381
